<?xml version="1.0" encoding="UTF-8" standalone="no"?>
<svg
   width="499.99948pt"
   height="369.87601pt"
   version="1.1"
   viewBox="0 0 499.99948 369.87601"
   id="svg876"
   sodipodi:docname="email.svg"
   inkscape:version="1.2 (dc2aedaf03, 2022-05-15)"
   xml:space="preserve"
   xmlns:inkscape="http://www.inkscape.org/namespaces/inkscape"
   xmlns:sodipodi="http://sodipodi.sourceforge.net/DTD/sodipodi-0.dtd"
   xmlns="http://www.w3.org/2000/svg"
   xmlns:svg="http://www.w3.org/2000/svg"><defs
     id="defs880">
	
</defs><sodipodi:namedview
     id="namedview878"
     pagecolor="#ffffff"
     bordercolor="#000000"
     borderopacity="0.25"
     inkscape:showpageshadow="2"
     inkscape:pageopacity="0.0"
     inkscape:pagecheckerboard="0"
     inkscape:deskcolor="#d1d1d1"
     inkscape:document-units="pt"
     showgrid="false"
     inkscape:zoom="0.84574468"
     inkscape:cx="-147.20755"
     inkscape:cy="276.67925"
     inkscape:window-width="2560"
     inkscape:window-height="1377"
     inkscape:window-x="-8"
     inkscape:window-y="-8"
     inkscape:window-maximized="1"
     inkscape:current-layer="svg876" /><path
     d="m -155.54119,-27.822139 h -392.3 c -9.4492,0.0117 -18.512,3.7695 -25.199,10.453 -6.6836,6.6875 -10.441,15.7459996 -10.453,25.1989996 V 249.41986 c 0.0117,9.4531 3.7695,18.516 10.453,25.199 6.6875,6.6836 15.75,10.445 25.199,10.457 h 392.32 c 9.4492,-0.0156 18.508,-3.7812 25.188,-10.461 6.6797,-6.6836 10.438,-15.746 10.449,-25.195 V 7.8298606 c -0.0117,-9.4531 -3.7734,-18.5119996 -10.457,-25.1989996 -6.6836,-6.6836 -15.746,-10.441 -25.199,-10.453 z m -409.84,277.239999 V 7.8278606 c 0.004,-0.97656 0.0898,-1.9492 0.25781,-2.9102 l 161.64,146.7699994 -160.35,104.9 c -1.0195,-2.2539 -1.5469,-4.6992 -1.543,-7.1719 z m 179.35,-87.5 h 68.691 l 160.57,105.05 h -389.83 z m 85.797,-10.469 161.3,-149.2399994 c 0.62109,1.8086 0.94141,3.7109 0.94141,5.625 V 249.42386 c 0,2.4727 -0.52734,4.918 -1.543,7.1719 z m 144.7,-161.1599994 c 0.86719,0.008 1.7305,0.082 2.582,0.21484 l -165.67,153.2999994 h -66.613 l -168.08,-152.6199994 c 1.7656,-0.58984 3.6172,-0.89453 5.4844,-0.89453 z"
     id="path874"
     style="fill:#1a1a1a;stroke-width:6;stroke-dasharray:none" /><path
     d="M -128.89432,-209.9401 V -69.814523 H 60.780691 V -209.9401 Z m 94.837511,81.63401 -79.794181,-73.20401 H 45.737361 Z m -25.081363,-11.57017 -61.326148,56.259712 V -196.13808 Z m 6.23609,5.71975 18.845273,17.28993 18.84737,-17.28993 60.9468,55.911982 H -113.85099 Z m 43.9266332,-5.71975 61.3261398,-56.26182 v 112.523642 z"
     style="fill:#000000;fill-rule:nonzero;stroke:none;stroke-width:26.208;stroke-linecap:butt;stroke-linejoin:miter;stroke-miterlimit:10;stroke-dasharray:none"
     stroke-linecap="round"
     id="path5428" /><g
     id="g7430"
     transform="matrix(2.5383129,0,0,2.5383129,-338.6004,-212.00456)"
     style="stroke:#ffffff;stroke-opacity:1"><path
       style="fill:none;stroke:#ffffff;stroke-width:15;stroke-dasharray:none;stroke-opacity:1"
       d="M 141.13029,91.158912 322.86732,91.027279 322.70105,221.7391 H 140.90859 Z"
       id="path7308"
       sodipodi:nodetypes="ccccc" /><path
       style="fill:none;stroke:#ffffff;stroke-width:15;stroke-dasharray:none;stroke-opacity:1"
       d="m 141,91.45047 c 90.95165,90.95165 90.95165,90.95165 90.95165,90.95165 l 90.50826,-90.95165"
       id="path7366" /><path
       style="fill:none;stroke:#ffffff;stroke-width:15;stroke-dasharray:none;stroke-opacity:1"
       d="m 141.40135,221.8214 c 64.97877,-64.97878 65.52744,-64.58687 65.52744,-64.58687"
       id="path7368" /><path
       style="fill:none;stroke:#ffffff;stroke-width:15;stroke-dasharray:none;stroke-opacity:1"
       d="M 323.0911,221.66464 C 257.79879,156.37233 257.56364,156.60748 257.56364,156.60748"
       id="path7370" /></g></svg>
