<?xml version="1.0" encoding="UTF-8" standalone="no"?>
<svg
   viewBox="0 0 500 500"
   version="1.1"
   id="svg8675"
   sodipodi:docname="facebook.svg"
   width="500"
   height="500"
   inkscape:version="1.2 (dc2aedaf03, 2022-05-15)"
   xmlns:inkscape="http://www.inkscape.org/namespaces/inkscape"
   xmlns:sodipodi="http://sodipodi.sourceforge.net/DTD/sodipodi-0.dtd"
   xmlns="http://www.w3.org/2000/svg"
   xmlns:svg="http://www.w3.org/2000/svg">
  <defs
     id="defs8679" />
  <sodipodi:namedview
     id="namedview8677"
     pagecolor="#ffffff"
     bordercolor="#000000"
     borderopacity="0.25"
     inkscape:showpageshadow="2"
     inkscape:pageopacity="0.0"
     inkscape:pagecheckerboard="0"
     inkscape:deskcolor="#d1d1d1"
     showgrid="false"
     inkscape:zoom="0.58398438"
     inkscape:cx="244.86957"
     inkscape:cy="162.67559"
     inkscape:window-width="1536"
     inkscape:window-height="801"
     inkscape:window-x="-8"
     inkscape:window-y="-8"
     inkscape:window-maximized="1"
     inkscape:current-layer="svg8675" />
  <path
     d="M 500,53.571429 V 446.42857 C 500,476.00446 476.00446,500 446.42857,500 H 351.22768 V 302.23214 h 67.63393 l 9.70982,-75.44643 h -77.34375 v -48.21428 c 0,-21.875 6.02678,-36.71875 37.38839,-36.71875 h 39.95536 V 74.44196 c -6.91964,-0.89285 -30.58036,-3.01339 -58.25893,-3.01339 -57.58929,0 -97.09821,35.15625 -97.09821,99.77679 v 55.69196 h -67.85715 v 75.44643 h 67.96875 V 500 H 53.571429 C 23.995536,500 0,476.00446 0,446.42857 V 53.571429 C 0,23.995536 23.995536,0 53.571429,0 H 446.42857 C 476.00446,0 500,23.995536 500,53.571429 Z"
     id="path8673"
     style="stroke-width:1.11607;fill:#ffffff;fill-opacity:1" />
</svg>
