<?xml version="1.0" encoding="UTF-8" standalone="no"?>
<svg
   width="500"
   height="500"
   viewBox="0 0 500 500"
   version="1.1"
   id="svg4"
   sodipodi:docname="instagram.svg"
   inkscape:version="1.2 (dc2aedaf03, 2022-05-15)"
   xmlns:inkscape="http://www.inkscape.org/namespaces/inkscape"
   xmlns:sodipodi="http://sodipodi.sourceforge.net/DTD/sodipodi-0.dtd"
   xmlns="http://www.w3.org/2000/svg"
   xmlns:svg="http://www.w3.org/2000/svg">
  <defs
     id="defs8" />
  <sodipodi:namedview
     id="namedview6"
     pagecolor="#ffffff"
     bordercolor="#000000"
     borderopacity="0.25"
     inkscape:showpageshadow="2"
     inkscape:pageopacity="0.0"
     inkscape:pagecheckerboard="0"
     inkscape:deskcolor="#d1d1d1"
     showgrid="false"
     inkscape:zoom="0.47278559"
     inkscape:cx="-347.93785"
     inkscape:cy="243.23922"
     inkscape:window-width="2560"
     inkscape:window-height="1369"
     inkscape:window-x="-8"
     inkscape:window-y="-8"
     inkscape:window-maximized="1"
     inkscape:current-layer="svg4" />
  <path
     d="m 250,45.0625 c 66.75,0 74.66667,0.25 101.04167,1.458333 C 418.79167,49.604167 450.4375,81.75 453.52083,149 c 1.20834,26.35417 1.4375,34.27083 1.4375,101.02083 0,66.77084 -0.25,74.66667 -1.4375,101.02084 -3.10416,67.1875 -34.66666,99.39583 -102.47916,102.47916 -26.375,1.20834 -34.25,1.45834 -101.04167,1.45834 -66.75,0 -74.66667,-0.25 -101.02083,-1.45834 C 81.0625,450.41667 49.583333,418.125 46.5,351.02083 45.291667,324.66667 45.041667,316.77083 45.041667,250 45.041667,183.25 45.3125,175.35417 46.5,148.97917 49.604167,81.75 81.166667,49.583333 148.97917,46.5 175.35417,45.3125 183.25,45.0625 250,45.0625 Z M 250,0 C 182.10417,0 173.60417,0.29166667 146.9375,1.5 56.145833,5.6666667 5.6875,56.041667 1.5208333,146.91667 0.29166667,173.60417 0,182.10417 0,250 c 0,67.89583 0.29166667,76.41667 1.5,103.08333 4.1666667,90.79167 54.541667,141.25 145.41667,145.41667 26.6875,1.20833 35.1875,1.5 103.08333,1.5 67.89583,0 76.41667,-0.29167 103.08333,-1.5 C 443.79167,494.33333 494.375,443.95833 498.47917,353.08333 499.70833,326.41667 500,317.89583 500,250 500,182.10417 499.70833,173.60417 498.5,146.9375 494.41667,56.229167 443.97917,5.6875 353.10417,1.5208333 326.41667,0.29166667 317.89583,0 250,0 Z m 0,121.625 c -70.89583,0 -128.375,57.47917 -128.375,128.375 0,70.89583 57.47917,128.39583 128.375,128.39583 70.89583,0 128.375,-57.47916 128.375,-128.39583 0,-70.89583 -57.47917,-128.375 -128.375,-128.375 z m 0,211.70833 c -46.02083,0 -83.33333,-37.29166 -83.33333,-83.33333 0,-46.02083 37.3125,-83.33333 83.33333,-83.33333 46.02083,0 83.33333,37.3125 83.33333,83.33333 0,46.04167 -37.3125,83.33333 -83.33333,83.33333 z M 383.45833,86.5625 c -16.58333,0 -30.02083,13.4375 -30.02083,30 0,16.5625 13.4375,30 30.02083,30 16.5625,0 29.97917,-13.4375 29.97917,-30 0,-16.5625 -13.41667,-30 -29.97917,-30 z"
     id="path2"
     style="fill:#ffffff;stroke-width:20.8333" />
</svg>
