<?xml version="1.0" encoding="UTF-8" standalone="no"?>
<!-- Created with Inkscape (http://www.inkscape.org/) -->

<svg
   width="500"
   height="503.17209"
   id="svg3070"
   version="1.1"
   inkscape:version="1.2 (dc2aedaf03, 2022-05-15)"
   sodipodi:docname="LinkedIn.svg"
   xmlns:inkscape="http://www.inkscape.org/namespaces/inkscape"
   xmlns:sodipodi="http://sodipodi.sourceforge.net/DTD/sodipodi-0.dtd"
   xmlns="http://www.w3.org/2000/svg"
   xmlns:svg="http://www.w3.org/2000/svg"
   xmlns:rdf="http://www.w3.org/1999/02/22-rdf-syntax-ns#"
   xmlns:cc="http://creativecommons.org/ns#"
   xmlns:dc="http://purl.org/dc/elements/1.1/">
  <defs
     id="defs3072">
    <inkscape:path-effect
       effect="powerclip"
       id="path-effect9401"
       is_visible="true"
       lpeversion="1"
       inverse="true"
       flatten="false"
       hide_clip="false"
       message="Use fill-rule evenodd on &lt;b&gt;fill and stroke&lt;/b&gt; dialog if no flatten result after convert clip to paths." />
    <filter
       id="mask-powermask-path-effect9270_inverse"
       inkscape:label="filtermask-powermask-path-effect9270"
       style="color-interpolation-filters:sRGB"
       height="100"
       width="100"
       x="-50"
       y="-50">
      <feColorMatrix
         id="mask-powermask-path-effect9270_primitive1"
         values="1"
         type="saturate"
         result="fbSourceGraphic" />
      <feColorMatrix
         id="mask-powermask-path-effect9270_primitive2"
         values="-1 0 0 0 1 0 -1 0 0 1 0 0 -1 0 1 0 0 0 1 0 "
         in="fbSourceGraphic" />
    </filter>
    <filter
       id="mask-powermask-path-effect9275_inverse"
       inkscape:label="filtermask-powermask-path-effect9275"
       style="color-interpolation-filters:sRGB"
       height="100"
       width="100"
       x="-50"
       y="-50">
      <feColorMatrix
         id="mask-powermask-path-effect9275_primitive1"
         values="1"
         type="saturate"
         result="fbSourceGraphic" />
      <feColorMatrix
         id="mask-powermask-path-effect9275_primitive2"
         values="-1 0 0 0 1 0 -1 0 0 1 0 0 -1 0 1 0 0 0 1 0 "
         in="fbSourceGraphic" />
    </filter>
    <clipPath
       clipPathUnits="userSpaceOnUse"
       id="clipPath9393">
      <g
         id="g9399"
         style="display:none">
        <path
           d="M 437.40268,459.57318 V 425.14294 H 425.9587 v 34.43024 z m -5.72204,-39.13111 c 3.99075,0 6.47465,-2.64385 6.47465,-5.94791 -0.0744,-3.37843 -2.4839,-5.94893 -6.39895,-5.94893 -3.91464,0 -6.47414,2.5705 -6.47414,5.94893 0,3.30406 2.48339,5.94791 6.32386,5.94791 h 0.0744 z"
           style="fill:#ffffff;fill-opacity:1;fill-rule:evenodd;stroke:none;stroke-width:1.01883"
           id="path9395"
           inkscape:connector-curvature="0" />
        <path
           d="m 443.73499,459.57318 h 11.44388 v -19.2273 c 0,-1.02902 0.0744,-2.05702 0.37656,-2.79261 0.82728,-2.05599 2.71028,-4.18534 5.8717,-4.18534 4.14102,0 5.79753,3.15735 5.79753,7.78588 v 18.41937 h 11.44296 v -19.74181 c 0,-10.57543 -5.64583,-15.49636 -13.17507,-15.49636 -6.17368,0 -8.88396,3.45077 -10.38979,5.8012 h 0.0764 v -4.99327 H 443.7353 c 0.15018,3.2307 0,34.43024 0,34.43024 z"
           style="fill:#ffffff;fill-opacity:1;fill-rule:evenodd;stroke:none;stroke-width:1.01883"
           id="path9397"
           inkscape:connector-curvature="0" />
      </g>
      <path
         id="lpe_path-effect9401"
         class="powerclip"
         d="m 409.43526,390.74571 h 85.76731 v 86.24799 h -85.76731 z m 27.96742,68.82747 V 425.14294 H 425.9587 v 34.43024 z m -5.72204,-39.13111 c 3.99075,0 6.47465,-2.64385 6.47465,-5.94791 -0.0744,-3.37843 -2.4839,-5.94893 -6.39895,-5.94893 -3.91464,0 -6.47414,2.5705 -6.47414,5.94893 0,3.30406 2.48339,5.94791 6.32386,5.94791 h 0.0744 z m 12.05435,39.13111 h 11.44388 v -19.2273 c 0,-1.02902 0.0744,-2.05702 0.37656,-2.79261 0.82728,-2.05599 2.71028,-4.18534 5.8717,-4.18534 4.14102,0 5.79753,3.15735 5.79753,7.78588 v 18.41937 h 11.44296 v -19.74181 c 0,-10.57543 -5.64583,-15.49636 -13.17507,-15.49636 -6.17368,0 -8.88396,3.45077 -10.38979,5.8012 h 0.0764 v -4.99327 H 443.7353 c 0.15018,3.2307 0,34.43024 0,34.43024 z" />
    </clipPath>
  </defs>
  <sodipodi:namedview
     id="base"
     pagecolor="#ffffff"
     bordercolor="#666666"
     borderopacity="1.0"
     inkscape:pageopacity="0.0"
     inkscape:pageshadow="2"
     inkscape:zoom="0.7"
     inkscape:cx="-50"
     inkscape:cy="245.71429"
     inkscape:document-units="px"
     inkscape:current-layer="g9251"
     showgrid="false"
     fit-margin-top="0"
     fit-margin-left="0"
     fit-margin-right="0"
     fit-margin-bottom="0"
     inkscape:window-width="1536"
     inkscape:window-height="801"
     inkscape:window-x="-8"
     inkscape:window-y="-8"
     inkscape:window-maximized="1"
     inkscape:showpageshadow="2"
     inkscape:pagecheckerboard="0"
     inkscape:deskcolor="#d1d1d1" />
  <metadata
     id="metadata3075">
    <rdf:RDF>
      <cc:Work
         rdf:about="">
        <dc:format>image/svg+xml</dc:format>
        <dc:type
           rdf:resource="http://purl.org/dc/dcmitype/StillImage" />
      </cc:Work>
    </rdf:RDF>
  </metadata>
  <g
     inkscape:label="Layer 1"
     inkscape:groupmode="layer"
     id="layer1"
     transform="translate(-414.43532,-395.74573)">
    <g
       id="g9251"
       transform="matrix(6.5991521,0,0,6.5991521,-2320.486,-2215.8404)">
      <path
         d="m 414.43526,401.20764 c 0,-3.01573 2.50672,-5.46193 5.59907,-5.46193 h 64.56918 c 3.09224,0 5.59906,2.4462 5.59906,5.46193 v 65.32413 c 0,3.01674 -2.50682,5.46193 -5.59906,5.46193 h -64.56918 c -3.09235,0 -5.59907,-2.44519 -5.59907,-5.46193 z"
         style="fill:#ffffff;fill-opacity:1;fill-rule:nonzero;stroke:none;stroke-width:1.01883"
         id="path14"
         inkscape:connector-curvature="0"
         clip-path="url(#clipPath9393)"
         inkscape:path-effect="#path-effect9401"
         inkscape:original-d="m 414.43526,401.20764 c 0,-3.01573 2.50672,-5.46193 5.59907,-5.46193 h 64.56918 c 3.09224,0 5.59906,2.4462 5.59906,5.46193 v 65.32413 c 0,3.01674 -2.50682,5.46193 -5.59906,5.46193 h -64.56918 c -3.09235,0 -5.59907,-2.44519 -5.59907,-5.46193 z" />
    </g>
  </g>
</svg>
