<?xml version="1.0" encoding="UTF-8" standalone="no"?>
<!-- Uploaded to: SVG Repo, www.svgrepo.com, Transformed by: SVG Repo Mixer Tools -->

<svg
   fill="#000000"
   width="450"
   height="482.39651"
   viewBox="0 0 13.5 14.471895"
   xml:space="preserve"
   version="1.1"
   id="svg19563"
   sodipodi:docname="mastodon.svg"
   inkscape:version="1.2 (dc2aedaf03, 2022-05-15)"
   xmlns:inkscape="http://www.inkscape.org/namespaces/inkscape"
   xmlns:sodipodi="http://sodipodi.sourceforge.net/DTD/sodipodi-0.dtd"
   xmlns="http://www.w3.org/2000/svg"
   xmlns:svg="http://www.w3.org/2000/svg"><defs
     id="defs19567" /><sodipodi:namedview
     id="namedview19565"
     pagecolor="#ffffff"
     bordercolor="#000000"
     borderopacity="0.25"
     inkscape:showpageshadow="2"
     inkscape:pageopacity="0.0"
     inkscape:pagecheckerboard="0"
     inkscape:deskcolor="#d1d1d1"
     showgrid="false"
     inkscape:zoom="1.28375"
     inkscape:cx="186.5628"
     inkscape:cy="332.61928"
     inkscape:window-width="2560"
     inkscape:window-height="1377"
     inkscape:window-x="-8"
     inkscape:window-y="-8"
     inkscape:window-maximized="1"
     inkscape:current-layer="svg19563" /><path
     d="m 13.499473,4.7512148 c 0,-3.1397382 -2.05722,-4.05944487 -2.05722,-4.05944487 C 10.405322,0.2156354 8.6245207,0.01519578 6.774253,0 H 6.7286657 C 4.8783982,0.01519578 3.0990444,0.2156354 2.0613895,0.69176993 c 0,0 -2.0572196,0.92043027 -2.0572196,4.05944487 0,0.7185434 -0.01374856,1.5781906 0.00868331,2.4899376 0.07453169,3.0702716 0.56296757,6.0964036 3.40168459,6.8475096 1.3090081,0.346608 2.4327725,0.418969 3.3372834,0.36904 1.6411447,-0.09117 2.5622986,-0.585399 2.5622986,-0.585399 l -0.054271,-1.19106 c 0,0 -1.1729698,0.369764 -2.4899378,0.3249 -1.3053901,-0.04486 -2.6824175,-0.14038 -2.8937113,-1.743173 a 3.2728822,3.2728822 0 0 1 -0.028944,-0.449361 c 0,0 1.2807874,0.313322 2.9045654,0.387854 0.9927913,0.04559 1.9233521,-0.05789 2.8691087,-0.170772 1.8133632,-0.216359 3.3922782,-1.3336107 3.5905462,-2.3546226 0.314046,-1.6085821 0.287997,-3.9248536 0.287997,-3.9248536 z m -2.42626,4.0449727 H 9.5673829 V 5.1065067 c 0,-0.7778794 -0.3270712,-1.1722461 -0.9819371,-1.1722461 -0.7236087,0 -1.0861366,0.4681748 -1.0861366,1.3943939 V 7.3482464 H 6.0021625 V 5.3286545 c 0,-0.9262191 -0.3625279,-1.3943939 -1.0868603,-1.3943939 -0.6548658,0 -0.981937,0.3950903 -0.981937,1.1722461 V 8.7961875 H 2.4275355 V 4.9950709 c 0,-0.7771557 0.1975452,-1.394394 0.59553,-1.8509911 0.4095625,-0.4565971 0.9457566,-0.6910463 1.6122002,-0.6910463 0.7706433,0 1.3545955,0.295956 1.7402789,0.8885915 L 6.7503739,3.970441 7.1259269,3.341625 C 7.5116105,2.7489895 8.0955627,2.4530335 8.866206,2.4530335 c 0.66572,0 1.202638,0.2344492 1.6122,0.6910463 0.397261,0.4565971 0.594807,1.0738354 0.594807,1.8509911 z"
     id="path19561"
     style="stroke-width:0.72359999;stroke-dasharray:none;fill:#ffffff;fill-opacity:1" /></svg>
