<?xml version="1.0" encoding="UTF-8" standalone="no"?>
<svg
   width="450"
   height="450"
   viewBox="0 0 450 450"
   fill="none"
   version="1.1"
   id="svg17280"
   sodipodi:docname="open-collective.svg"
   xml:space="preserve"
   inkscape:version="1.2 (dc2aedaf03, 2022-05-15)"
   xmlns:inkscape="http://www.inkscape.org/namespaces/inkscape"
   xmlns:sodipodi="http://sodipodi.sourceforge.net/DTD/sodipodi-0.dtd"
   xmlns="http://www.w3.org/2000/svg"
   xmlns:svg="http://www.w3.org/2000/svg"><defs
     id="defs17284" /><sodipodi:namedview
     id="namedview17282"
     pagecolor="#ffffff"
     bordercolor="#000000"
     borderopacity="0.25"
     inkscape:showpageshadow="2"
     inkscape:pageopacity="0.0"
     inkscape:pagecheckerboard="0"
     inkscape:deskcolor="#d1d1d1"
     showgrid="false"
     inkscape:zoom="1.3372396"
     inkscape:cx="15.330088"
     inkscape:cy="296.88023"
     inkscape:window-width="2560"
     inkscape:window-height="1377"
     inkscape:window-x="-8"
     inkscape:window-y="-8"
     inkscape:window-maximized="1"
     inkscape:current-layer="svg17280" /><path
     d="m 342.045,318.8225 53.24501,53.24499 C 429.38,332.63 450,281.225 450,225.0025 450,169.68675 430.04,119.03325 396.9275,79.852249 L 343.61,133.16775 c 19.6775,25.3765 31.39001,57.23724 31.39001,91.83475 0,35.505 -12.33501,68.13 -32.95501,93.82 z"
     fill="currentColor"
     fill-opacity="0.5"
     id="path17276"
     style="stroke-width:25;fill:#bebebe;fill-opacity:1" /><path
     d="m 316.83499,343.6125 c -25.37749,19.675 -57.23749,31.38751 -91.835,31.38751 -82.84274,0 -149.999991,-67.15752 -149.999991,-150.00002 0,-82.84274 67.157251,-149.999991 149.999991,-149.999991 35.505,0 68.13001,12.336001 93.82001,32.955751 L 372.065,54.710749 C 332.6275,20.620501 281.22249,0 224.99999,0 100.736,0 0,100.736 0,224.99999 0,349.265 100.736,450 224.99999,450 280.315,450 330.96749,430.04 370.15,396.9275 Z"
     fill="currentColor"
     id="path17278"
     style="stroke-width:25;fill:#ffffff;fill-opacity:1" /></svg>
