<?xml version="1.0" encoding="UTF-8" standalone="no"?>
<!-- Created with Inkscape (http://www.inkscape.org/) -->

<svg
   id="svg4776"
   sodipodi:docname="phone.svg"
   viewBox="0 0 499.99999 499.98914"
   version="1.1"
   inkscape:version="1.2 (dc2aedaf03, 2022-05-15)"
   width="500"
   height="499.98914"
   xml:space="preserve"
   xmlns:inkscape="http://www.inkscape.org/namespaces/inkscape"
   xmlns:sodipodi="http://sodipodi.sourceforge.net/DTD/sodipodi-0.dtd"
   xmlns="http://www.w3.org/2000/svg"
   xmlns:svg="http://www.w3.org/2000/svg"
   xmlns:rdf="http://www.w3.org/1999/02/22-rdf-syntax-ns#"
   xmlns:cc="http://creativecommons.org/ns#"
   xmlns:dc="http://purl.org/dc/elements/1.1/"><title
     id="title3415">Mobile Icon - White on Grey</title><defs
     id="defs16" /><sodipodi:namedview
     id="base"
     bordercolor="#666666"
     inkscape:pageshadow="2"
     inkscape:window-y="-8"
     pagecolor="#ffffff"
     inkscape:window-height="1377"
     inkscape:window-maximized="1"
     inkscape:zoom="0.35"
     inkscape:window-x="-8"
     showgrid="false"
     borderopacity="1.0"
     inkscape:current-layer="layer1"
     inkscape:cx="-575.71429"
     inkscape:cy="574.28571"
     inkscape:window-width="2560"
     inkscape:pageopacity="0.0"
     inkscape:document-units="px"
     inkscape:showpageshadow="2"
     inkscape:pagecheckerboard="0"
     inkscape:deskcolor="#d1d1d1" /><g
     id="layer1"
     inkscape:label="Layer 1"
     inkscape:groupmode="layer"
     transform="translate(-325.66694,-623.14613)"><g
       id="g3197"
       transform="matrix(5.5554363,0,0,5.5554363,325.66792,623.14477)"
       style="fill:#ffffff"><path
         d="m 38.789,51.211 10.876,10.876 c 0.974,0.974 2.471,1.194 3.684,0.543 l 13.034,-6.997 c 0.964,-0.518 2.129,-0.493 3.07,0.066 L 88.47,66.984 c 1.357,0.805 1.903,2.489 1.268,3.933 -1.625,3.698 -4.583,10.476 -5.758,13.473 -0.247,0.631 -0.615,1.209 -1.127,1.652 C 70.179,97.028 44.963,83.642 25.662,64.341 6.358,45.039 -7.028,19.823 3.958,7.149 4.402,6.637 4.98,6.269 5.61,6.022 8.606,4.847 15.385,1.889 19.083,0.264 c 1.444,-0.635 3.128,-0.089 3.933,1.268 l 11.285,19.017 c 0.558,0.941 0.583,2.106 0.066,3.07 L 27.37,36.651 c -0.651,1.213 -0.431,2.71 0.543,3.684 0,0 10.876,10.876 10.876,10.876 z"
         id="path3171"
         style="fill:#ffffff" /><g
         id="g3173"
         style="fill:#ffffff">
</g><g
         id="g3175"
         style="fill:#ffffff">
</g><g
         id="g3177"
         style="fill:#ffffff">
</g><g
         id="g3179"
         style="fill:#ffffff">
</g><g
         id="g3181"
         style="fill:#ffffff">
</g><g
         id="g3183"
         style="fill:#ffffff">
</g></g></g><metadata
     id="metadata14"><rdf:RDF><cc:Work><dc:format>image/svg+xml</dc:format><dc:type
           rdf:resource="http://purl.org/dc/dcmitype/StillImage" /><cc:license
           rdf:resource="http://creativecommons.org/publicdomain/zero/1.0/" /><dc:publisher><cc:Agent
             rdf:about="http://openclipart.org/"><dc:title>Rygle</dc:title></cc:Agent></dc:publisher><dc:title>Mobile Icon - White on Grey</dc:title><dc:date>2015-03-29</dc:date><dc:description>Mobile Icon - White on Grey</dc:description><dc:source /><dc:creator><cc:Agent><dc:title>Rygle</dc:title></cc:Agent></dc:creator><dc:subject><rdf:Bag><rdf:li>Icon</rdf:li><rdf:li>mobile</rdf:li><rdf:li>communication</rdf:li><rdf:li>communicate</rdf:li></rdf:Bag></dc:subject><dc:rights><cc:Agent><dc:title>Public Domain</dc:title></cc:Agent></dc:rights><dc:contributor><cc:Agent><dc:title>Rygle</dc:title></cc:Agent></dc:contributor></cc:Work><cc:License
         rdf:about="http://creativecommons.org/publicdomain/zero/1.0/"><cc:permits
           rdf:resource="http://creativecommons.org/ns#Reproduction" /><cc:permits
           rdf:resource="http://creativecommons.org/ns#Distribution" /><cc:permits
           rdf:resource="http://creativecommons.org/ns#DerivativeWorks" /></cc:License></rdf:RDF></metadata></svg>
