<?xml version="1.0" encoding="UTF-8" standalone="no"?>
<!-- Generator: Adobe Illustrator 16.0.0, SVG Export Plug-In . SVG Version: 6.00 Build 0)  -->

<svg
   version="1.1"
   id="Layer_1"
   x="0px"
   y="0px"
   width="500"
   height="446.39563"
   viewBox="-194 -104 500 446.39563"
   enable-background="new -194 -104 1000 1000"
   xml:space="preserve"
   sodipodi:docname="reddit.svg"
   inkscape:version="1.2 (dc2aedaf03, 2022-05-15)"
   xmlns:inkscape="http://www.inkscape.org/namespaces/inkscape"
   xmlns:sodipodi="http://sodipodi.sourceforge.net/DTD/sodipodi-0.dtd"
   xmlns="http://www.w3.org/2000/svg"
   xmlns:svg="http://www.w3.org/2000/svg"><defs
   id="defs46" /><sodipodi:namedview
   id="namedview44"
   pagecolor="#ffffff"
   bordercolor="#000000"
   borderopacity="0.25"
   inkscape:showpageshadow="2"
   inkscape:pageopacity="0.0"
   inkscape:pagecheckerboard="0"
   inkscape:deskcolor="#d1d1d1"
   showgrid="false"
   inkscape:zoom="0.4135"
   inkscape:cx="1073.7606"
   inkscape:cy="223.70012"
   inkscape:window-width="1920"
   inkscape:window-height="1002"
   inkscape:window-x="-8"
   inkscape:window-y="-8"
   inkscape:window-maximized="1"
   inkscape:current-layer="g29" />
<g
   id="Artwork"
   transform="translate(-167.836,-197.662)">
	<g
   id="g29">
		
		<path
   fill="#ffffff"
   d="m 473.836,320.81438 c 0,-30.31649 -24.6027,-54.92069 -54.92219,-54.92069 -14.93623,0 -28.11813,5.71228 -37.78535,15.37725 -37.34433,-26.80181 -89.19213,-44.37667 -146.30817,-46.57278 l 25.04373,-117.31175 81.28373,17.13684 c 0.87754,20.64926 18.01363,37.34583 39.10392,37.34583 21.5283,0 39.10316,-17.57486 39.10316,-39.10391 0,-21.52831 -17.57486,-39.10317 -39.10316,-39.10317 -15.38026,0 -28.55991,8.78743 -34.71096,21.96858 L 254.59276,96.296877 c -2.63638,-0.439522 -5.27201,0 -7.46887,1.317814 -2.19685,1.317814 -3.51617,3.515419 -4.39521,6.151799 l -27.67936,130.93167 c -58.43611,1.75734 -110.72042,18.89268 -148.505776,46.57278 -9.667225,-9.2277 -23.288644,-15.378 -37.786853,-15.378 -30.316486,0 -54.920691,24.60495 -54.920691,54.92069 0,22.4081 13.181146,41.30077 32.5133434,50.0882 -0.8790436,5.27201 -1.3178141,10.98429 -1.3178141,16.69507 0,84.35813 97.9780507,152.46072 219.2447407,152.46072 121.26444,0 219.244,-68.10259 219.244,-152.46072 0,-5.71078 -0.43802,-10.98429 -1.31782,-16.25705 18.01288,-8.78593 31.63355,-28.11812 31.63355,-50.52547 z M 98.177093,359.91754 c 0,-21.5283 17.574857,-39.10316 39.103167,-39.10316 21.52905,0 39.10316,17.57486 39.10316,39.10316 0,21.52831 -17.57486,39.10392 -39.10316,39.10392 -21.52831,0 -39.103167,-17.57561 -39.103167,-39.10392 z M 316.54279,463.1691 c -26.80031,26.80332 -77.76831,28.55991 -92.70754,28.55991 -14.93773,0 -66.34375,-2.19761 -92.70604,-28.55991 -3.9542,-3.95419 -3.9542,-10.54401 0,-14.4982 3.95569,-3.9542 10.54551,-3.9542 14.49896,0 16.69657,16.69581 52.72458,22.84686 78.6481,22.84686 25.92127,0 61.51202,-6.1518 78.64586,-22.84686 3.95419,-3.9542 10.54626,-3.9542 14.50046,0 3.07365,4.39221 3.07365,10.54401 -0.8798,14.4982 z m -7.03084,-64.14764 c -21.52906,0 -39.10392,-17.57561 -39.10392,-39.10392 0,-21.5283 17.57486,-39.10316 39.10392,-39.10316 21.53055,0 39.10617,17.57486 39.10617,39.10316 0,21.52831 -17.57562,39.10392 -39.10617,39.10392 z"
   id="path27"
   style="stroke-width:0.751319" />
	</g>
</g>
<g
   id="Spacing_Guide"
   display="none"
   transform="translate(-167.836,-197.662)">
	
		<rect
   y="90"
   display="inline"
   fill="none"
   stroke="#d8d8d8"
   stroke-width="0.5"
   stroke-miterlimit="10"
   width="152.911"
   height="152.911"
   id="rect32"
   x="0" />
	
		<rect
   y="90"
   display="inline"
   fill="none"
   stroke="#d8d8d8"
   stroke-width="0.5"
   stroke-miterlimit="10"
   width="612"
   height="152.911"
   id="rect34"
   x="0" />
	
		<rect
   y="548.90997"
   display="inline"
   fill="none"
   stroke="#d8d8d8"
   stroke-width="0.5"
   stroke-miterlimit="10"
   width="612"
   height="152.911"
   id="rect36"
   x="0" />
	
		<rect
   y="90"
   display="inline"
   fill="none"
   stroke="#d8d8d8"
   stroke-width="0.5"
   stroke-miterlimit="10"
   width="152.911"
   height="612"
   id="rect38"
   x="0" />
	
		<rect
   x="459.09"
   y="90"
   display="inline"
   fill="none"
   stroke="#d8d8d8"
   stroke-width="0.5"
   stroke-miterlimit="10"
   width="152.91"
   height="612"
   id="rect40" />
</g>
</svg>
